<?xml version="1.0" standalone="no"?>
<!DOCTYPE svg PUBLIC "-//W3C//DTD SVG 20010904//EN"
 "http://www.w3.org/TR/2001/REC-SVG-20010904/DTD/svg10.dtd">
<svg version="1.0" xmlns="http://www.w3.org/2000/svg"
 width="512.000000pt" height="512.000000pt" viewBox="0 0 512.000000 512.000000"
 preserveAspectRatio="xMidYMid meet">

<g transform="translate(0.000000,512.000000) scale(0.100000,-0.100000)"
fill="#000000" stroke="none">
<path d="M2324 5109 c-715 -39 -1337 -243 -1701 -558 -43 -37 -98 -93 -121
-124 l-43 -56 -143 -3 c-139 -3 -144 -4 -192 -33 -30 -19 -60 -49 -79 -79
l-30 -49 -3 -276 c-2 -191 1 -289 9 -319 16 -57 77 -124 138 -150 l49 -22 4
-82 c6 -146 81 -258 213 -320 l65 -30 0 -1218 0 -1218 -138 -4 c-156 -5 -202
-19 -265 -82 -62 -62 -82 -110 -82 -201 0 -63 5 -89 23 -122 29 -55 83 -107
141 -135 l46 -23 2341 0 2340 0 59 30 c124 63 183 203 144 335 -19 64 -78 131
-143 165 -56 28 -67 30 -198 33 l-138 4 2 1220 3 1220 42 17 c98 37 186 128
219 224 9 27 19 80 23 119 l6 70 38 13 c54 19 103 59 134 113 l28 47 3 270 c4
307 0 332 -61 402 -63 71 -99 83 -250 83 l-129 0 -98 103 c-53 56 -133 127
-176 158 -111 80 -253 159 -285 159 -40 0 -72 -31 -72 -69 0 -41 17 -57 128
-121 154 -88 270 -187 386 -330 l36 -45 162 -5 163 -5 24 -28 c24 -28 24 -29
24 -272 0 -168 -4 -252 -12 -270 -27 -59 139 -55 -2403 -55 l-2337 0 -29 29
-29 29 0 260 0 259 26 27 c26 25 29 26 159 26 181 0 187 2 239 69 160 207 410
366 773 491 551 190 1269 237 1923 125 116 -19 353 -77 434 -105 33 -11 71
-20 86 -20 33 0 70 38 70 72 0 48 -28 66 -168 108 -272 81 -576 131 -917 150
-207 11 -250 11 -461 -1z m2433 -1735 c-10 -129 -100 -218 -220 -218 -75 1
-126 24 -179 83 -53 59 -83 57 -158 -13 -73 -67 -131 -85 -211 -66 -38 9 -65
25 -109 66 -75 70 -105 72 -158 13 -52 -58 -104 -82 -177 -82 -72 0 -113 18
-172 79 -60 62 -92 61 -158 -6 -104 -106 -232 -102 -340 9 -54 57 -92 57 -143
0 -100 -111 -240 -114 -342 -8 -65 68 -97 68 -163 -1 -102 -106 -234 -102
-342 9 -54 56 -90 56 -142 0 -103 -111 -241 -114 -343 -8 -65 68 -95 68 -160
0 -102 -106 -240 -103 -343 8 -52 56 -88 56 -142 0 -75 -77 -150 -101 -237
-75 -61 17 -122 69 -144 122 -8 18 -14 61 -14 94 l0 60 2201 0 2202 0 -6 -66z
m-3889 -309 c63 -41 121 -57 209 -58 78 -1 88 1 164 40 l81 42 62 -35 c133
-72 274 -65 406 21 25 16 27 16 75 -14 110 -67 242 -75 352 -20 32 16 65 34
75 41 13 10 23 7 55 -13 134 -88 292 -86 433 6 25 16 27 16 75 -14 78 -48 164
-66 248 -52 61 10 130 38 178 73 14 9 26 6 65 -19 68 -43 118 -57 199 -57 80
0 129 14 200 56 38 24 52 28 65 19 84 -61 195 -89 284 -72 54 10 140 45 176
72 13 9 26 5 63 -19 26 -16 67 -35 92 -42 l45 -13 0 -1218 0 -1219 -100 0
-100 0 0 1094 0 1095 -26 20 c-26 21 -35 21 -579 21 -544 0 -553 0 -579 -21
l-26 -20 0 -1095 0 -1094 -1210 0 -1210 0 0 1218 0 1218 53 17 c28 9 68 28 87
41 44 31 43 31 88 1z m3252 -1455 l0 -1040 -455 0 -455 0 0 1040 0 1040 455 0
455 0 0 -1040z m760 -1206 c74 -30 102 -120 60 -189 -40 -64 134 -60 -2390
-60 -2206 0 -2307 1 -2333 18 -36 23 -67 74 -67 110 0 54 43 111 96 127 16 4
1056 9 2311 9 2071 1 2286 0 2323 -15z"/>
<path d="M875 2775 l-25 -24 0 -879 0 -879 23 -21 c22 -21 33 -22 181 -22 153
0 157 1 181 25 28 27 30 42 14 78 -17 37 -50 47 -154 47 l-95 0 0 775 0 775
875 0 875 0 0 -775 0 -775 -620 0 -621 0 -24 -25 c-32 -31 -33 -74 -2 -103
l23 -22 673 0 672 0 24 25 25 24 0 863 c0 475 -3 873 -6 886 -15 54 15 52
-1029 52 l-966 0 -24 -25z"/>
<path d="M1135 2516 l-25 -25 0 -619 0 -619 23 -21 23 -22 721 0 722 0 20 26
c21 26 21 35 21 639 0 588 -1 614 -19 636 l-19 24 -721 3 -722 2 -24 -24z
m1355 -641 l0 -515 -615 0 -615 0 0 515 0 515 615 0 615 0 0 -515z"/>
<path d="M3343 2516 l-28 -24 -3 -719 c-2 -395 0 -733 3 -751 3 -18 15 -42 26
-53 18 -18 35 -19 324 -19 289 0 306 1 324 19 11 11 23 35 26 53 3 18 5 356 3
751 l-3 719 -28 24 -28 24 -294 0 -294 0 -28 -24z m525 -773 l2 -643 -205 0
-205 0 0 638 c0 351 3 642 7 646 4 3 95 5 202 4 l196 -3 3 -642z"/>
<path d="M2316 4850 c-181 -12 -367 -36 -536 -70 -186 -38 -213 -46 -235 -70
-25 -27 -22 -80 6 -102 26 -22 54 -22 128 -4 488 125 1137 135 1656 25 202
-43 211 -44 240 -25 32 21 35 84 6 110 -37 34 -331 94 -586 120 -191 19 -512
27 -679 16z"/>
<path d="M1014 4466 c-17 -7 -34 -21 -38 -31 -3 -9 -6 -149 -6 -311 l0 -295
25 -25 c26 -26 27 -26 164 -22 133 3 139 4 186 33 113 70 140 239 53 332 -18
19 -19 26 -9 54 32 92 -2 193 -83 243 -43 27 -56 30 -154 33 -77 3 -116 0
-138 -11z m214 -152 c25 -18 29 -56 7 -74 -9 -7 -38 -15 -65 -18 l-50 -5 0 57
0 56 43 0 c23 0 53 -7 65 -16z m56 -266 c24 -34 20 -73 -10 -97 -21 -16 -41
-21 -90 -21 l-64 0 0 70 0 70 74 0 c66 0 77 -3 90 -22z"/>
<path d="M1817 4469 c-117 -19 -226 -107 -267 -217 -31 -80 -25 -205 12 -277
34 -66 100 -129 168 -163 47 -23 68 -27 140 -27 73 0 94 4 147 29 112 52 190
162 200 285 19 226 -177 407 -400 370z m155 -172 c88 -48 123 -168 76 -257
-63 -117 -206 -144 -305 -57 -45 39 -63 82 -63 147 0 153 156 242 292 167z"/>
<path d="M2599 4470 c-173 -29 -303 -200 -285 -374 12 -124 89 -230 205 -285
75 -35 201 -37 274 -3 106 48 174 128 202 241 49 190 -79 383 -280 420 -32 6
-61 10 -64 10 -3 -1 -27 -5 -52 -9z m135 -160 c34 -13 85 -59 103 -94 9 -17
17 -56 17 -86 2 -159 -179 -254 -308 -163 -72 51 -102 147 -72 227 20 51 82
113 123 122 16 3 33 7 38 9 13 5 70 -4 99 -15z"/>
<path d="M3163 4470 c-52 -21 -54 -34 -51 -355 l3 -297 24 -19 c30 -25 62 -24
95 2 24 19 26 26 26 101 l0 81 104 -101 c84 -81 111 -102 133 -102 42 0 73 33
73 77 0 32 -11 46 -125 155 -69 66 -125 123 -125 127 0 4 48 49 106 101 114
103 138 137 122 181 -11 31 -56 54 -87 44 -12 -3 -60 -43 -109 -87 l-87 -82
-5 72 c-5 73 -16 95 -55 105 -11 3 -30 2 -42 -3z"/>
<path d="M3860 4471 c-138 -29 -212 -163 -153 -278 25 -49 63 -74 178 -118 51
-20 101 -45 110 -55 23 -26 11 -57 -30 -77 -48 -23 -113 -10 -167 32 -62 50
-113 45 -137 -14 -10 -24 -10 -34 3 -59 20 -38 96 -89 165 -109 247 -71 438
186 256 344 -27 24 -81 53 -144 78 -55 22 -103 45 -105 52 -3 6 3 22 13 34 26
32 97 29 155 -5 55 -32 80 -33 111 -1 50 49 22 106 -72 147 -65 29 -131 39
-183 29z"/>
<path d="M410 4119 c-121 -49 -173 -199 -107 -312 75 -128 257 -146 352 -34
94 110 62 272 -66 338 -42 21 -135 25 -179 8z m139 -171 c30 -54 -18 -110 -81
-95 -24 6 -48 43 -48 72 0 8 9 24 21 36 30 30 88 23 108 -13z"/>
<path d="M4545 4114 c-169 -87 -165 -327 7 -398 124 -52 268 23 297 154 21 93
-28 198 -111 239 -54 26 -149 28 -193 5z m140 -154 c38 -42 9 -110 -48 -110
-17 0 -39 7 -49 17 -22 20 -23 70 -1 95 22 24 75 23 98 -2z"/>
</g>
</svg>
